<?xml version="1.0" standalone="no"?>
<svg xmlns:xlink="http://www.w3.org/1999/xlink" id="wave" style="transform:rotate(0deg); transition: 0.3s" viewBox="0 0 1440 100" version="1.1" xmlns="http://www.w3.org/2000/svg"><defs><linearGradient id="sw-gradient-0" x1="0" x2="0" y1="1" y2="0"><stop stop-color="rgba(134, 239, 172, 1)" offset="0%"/><stop stop-color="rgba(94, 234, 212, 1)" offset="100%"/></linearGradient></defs><path style="transform:translate(0, 0px); opacity:1" fill="url(#sw-gradient-0)" d="M0,20L10,23.3C20,27,40,33,60,40C80,47,100,53,120,48.3C140,43,160,27,180,21.7C200,17,220,23,240,31.7C260,40,280,50,300,51.7C320,53,340,47,360,43.3C380,40,400,40,420,40C440,40,460,40,480,40C500,40,520,40,540,40C560,40,580,40,600,33.3C620,27,640,13,660,13.3C680,13,700,27,720,36.7C740,47,760,53,780,51.7C800,50,820,40,840,31.7C860,23,880,17,900,15C920,13,940,17,960,23.3C980,30,1000,40,1020,41.7C1040,43,1060,37,1080,31.7C1100,27,1120,23,1140,25C1160,27,1180,33,1200,31.7C1220,30,1240,20,1260,21.7C1280,23,1300,37,1320,43.3C1340,50,1360,50,1380,48.3C1400,47,1420,43,1430,41.7L1440,40L1440,100L1430,100C1420,100,1400,100,1380,100C1360,100,1340,100,1320,100C1300,100,1280,100,1260,100C1240,100,1220,100,1200,100C1180,100,1160,100,1140,100C1120,100,1100,100,1080,100C1060,100,1040,100,1020,100C1000,100,980,100,960,100C940,100,920,100,900,100C880,100,860,100,840,100C820,100,800,100,780,100C760,100,740,100,720,100C700,100,680,100,660,100C640,100,620,100,600,100C580,100,560,100,540,100C520,100,500,100,480,100C460,100,440,100,420,100C400,100,380,100,360,100C340,100,320,100,300,100C280,100,260,100,240,100C220,100,200,100,180,100C160,100,140,100,120,100C100,100,80,100,60,100C40,100,20,100,10,100L0,100Z"/></svg>